HIERARCHY
ROOT mixamorig:Hips
{
	OFFSET -0.000008 104.274872 1.554316
	CHANNELS 6 Xposition Yposition Zposition Xrotation Yrotation Zrotation
	JOINT mixamorig:Spine
	{
		OFFSET -0.000005 10.181595 0.131519
		CHANNELS 6 Xposition Yposition Zposition Xrotation Yrotation Zrotation
		JOINT mixamorig:Spine1
		{
			OFFSET -0.000000 9.893959 -1.470707
			CHANNELS 6 Xposition Yposition Zposition Xrotation Yrotation Zrotation
			JOINT mixamorig:Spine2
			{
				OFFSET -0.000000 9.220757 -1.370641
				CHANNELS 6 Xposition Yposition Zposition Xrotation Yrotation Zrotation
				JOINT mixamorig:Neck
				{
					OFFSET 0.000001 16.740417 -2.049036
					CHANNELS 6 Xposition Yposition Zposition Xrotation Yrotation Zrotation
					JOINT mixamorig:Head
					{
						OFFSET 0.000000 9.617874 1.685006
						CHANNELS 6 Xposition Yposition Zposition Xrotation Yrotation Zrotation
						JOINT mixamorig:HeadTop_End
						{
							OFFSET 0.000002 22.037354 7.501101
							CHANNELS 6 Xposition Yposition Zposition Xrotation Yrotation Zrotation
							End Site
							{
								OFFSET 0.000168 2310.654297 -282.823242
							}
						}
					}
				}
				JOINT mixamorig:RightShoulder
				{
					OFFSET -4.569970 11.014908 -2.160885
					CHANNELS 6 Xposition Yposition Zposition Xrotation Yrotation Zrotation
					JOINT mixamorig:RightArm
					{
						OFFSET -10.592851 -0.524811 -2.232101
						CHANNELS 6 Xposition Yposition Zposition Xrotation Yrotation Zrotation
						JOINT mixamorig:RightForeArm
						{
							OFFSET -27.841511 0.000031 -0.000004
							CHANNELS 6 Xposition Yposition Zposition Xrotation Yrotation Zrotation
							JOINT mixamorig:RightHand
							{
								OFFSET -28.328831 -0.000015 0.000015
								CHANNELS 6 Xposition Yposition Zposition Xrotation Yrotation Zrotation
								JOINT mixamorig:RightHandThumb1
								{
									OFFSET -2.464806 -1.573990 2.681852
									CHANNELS 6 Xposition Yposition Zposition Xrotation Yrotation Zrotation
									JOINT mixamorig:RightHandThumb2
									{
										OFFSET -3.215179 -1.872803 1.924282
										CHANNELS 6 Xposition Yposition Zposition Xrotation Yrotation Zrotation
										JOINT mixamorig:RightHandThumb3
										{
											OFFSET -2.654831 -1.527969 1.512609
											CHANNELS 6 Xposition Yposition Zposition Xrotation Yrotation Zrotation
											JOINT mixamorig:RightHandThumb4
											{
												OFFSET -2.018814 -1.152008 1.108052
												CHANNELS 6 Xposition Yposition Zposition Xrotation Yrotation Zrotation
												End Site
												{
													OFFSET -188.809540 -114.533607 132.431396
												}
											}
										}
									}
								}
								JOINT mixamorig:RightHandIndex1
								{
									OFFSET -9.108284 -0.517868 2.259835
									CHANNELS 6 Xposition Yposition Zposition Xrotation Yrotation Zrotation
									JOINT mixamorig:RightHandIndex2
									{
										OFFSET -3.699989 0.000000 0.001215
										CHANNELS 6 Xposition Yposition Zposition Xrotation Yrotation Zrotation
										JOINT mixamorig:RightHandIndex3
										{
											OFFSET -2.850006 0.000031 -0.000522
											CHANNELS 6 Xposition Yposition Zposition Xrotation Yrotation Zrotation
											JOINT mixamorig:RightHandIndex4
											{
												OFFSET -2.772186 -0.000015 -0.000020
												CHANNELS 6 Xposition Yposition Zposition Xrotation Yrotation Zrotation
												End Site
												{
													OFFSET -277.218445 0.000000 -0.050231
												}
											}
										}
									}
								}
								JOINT mixamorig:RightHandMiddle1
								{
									OFFSET -9.532516 -0.000031 -0.000023
									CHANNELS 6 Xposition Yposition Zposition Xrotation Yrotation Zrotation
									JOINT mixamorig:RightHandMiddle2
									{
										OFFSET -3.700005 -0.000015 0.003713
										CHANNELS 6 Xposition Yposition Zposition Xrotation Yrotation Zrotation
										JOINT mixamorig:RightHandMiddle3
										{
											OFFSET -2.949974 0.000015 -0.002054
											CHANNELS 6 Xposition Yposition Zposition Xrotation Yrotation Zrotation
											JOINT mixamorig:RightHandMiddle4
											{
												OFFSET -2.946640 0.000000 -0.000156
												CHANNELS 6 Xposition Yposition Zposition Xrotation Yrotation Zrotation
												End Site
												{
													OFFSET -294.664337 0.000000 -0.113670
												}
											}
										}
									}
								}
								JOINT mixamorig:RightHandRing1
								{
									OFFSET -9.103600 -0.043076 -1.865134
									CHANNELS 6 Xposition Yposition Zposition Xrotation Yrotation Zrotation
									JOINT mixamorig:RightHandRing2
									{
										OFFSET -3.379288 0.000000 -0.001055
										CHANNELS 6 Xposition Yposition Zposition Xrotation Yrotation Zrotation
										JOINT mixamorig:RightHandRing3
										{
											OFFSET -2.889687 -0.000015 0.000379
											CHANNELS 6 Xposition Yposition Zposition Xrotation Yrotation Zrotation
											JOINT mixamorig:RightHandRing4
											{
												OFFSET -2.638809 -0.000015 0.000941
												CHANNELS 6 Xposition Yposition Zposition Xrotation Yrotation Zrotation
												End Site
												{
													OFFSET -263.880371 0.000000 0.516020
												}
											}
										}
									}
								}
								JOINT mixamorig:RightHandPinky1
								{
									OFFSET -8.076683 -0.486710 -3.806280
									CHANNELS 6 Xposition Yposition Zposition Xrotation Yrotation Zrotation
									JOINT mixamorig:RightHandPinky2
									{
										OFFSET -3.600014 -0.000015 -0.003747
										CHANNELS 6 Xposition Yposition Zposition Xrotation Yrotation Zrotation
										JOINT mixamorig:RightHandPinky3
										{
											OFFSET -2.099983 0.000000 -0.005739
											CHANNELS 6 Xposition Yposition Zposition Xrotation Yrotation Zrotation
											JOINT mixamorig:RightHandPinky4
											{
												OFFSET -2.115768 -0.000031 -0.003680
												CHANNELS 6 Xposition Yposition Zposition Xrotation Yrotation Zrotation
												End Site
												{
													OFFSET -211.577087 0.000000 -0.350686
												}
											}
										}
									}
								}
							}
						}
					}
				}
				JOINT mixamorig:LeftShoulder
				{
					OFFSET 4.570447 11.014725 -2.160855
					CHANNELS 6 Xposition Yposition Zposition Xrotation Yrotation Zrotation
					JOINT mixamorig:LeftArm
					{
						OFFSET 10.592371 -0.524597 -2.232119
						CHANNELS 6 Xposition Yposition Zposition Xrotation Yrotation Zrotation
						JOINT mixamorig:LeftForeArm
						{
							OFFSET 27.841532 -0.000031 0.000026
							CHANNELS 6 Xposition Yposition Zposition Xrotation Yrotation Zrotation
							JOINT mixamorig:LeftHand
							{
								OFFSET 28.328846 -0.000061 0.000022
								CHANNELS 6 Xposition Yposition Zposition Xrotation Yrotation Zrotation
								JOINT mixamorig:LeftHandThumb1
								{
									OFFSET 2.466141 -1.576172 2.681732
									CHANNELS 6 Xposition Yposition Zposition Xrotation Yrotation Zrotation
									JOINT mixamorig:LeftHandThumb2
									{
										OFFSET 3.217812 -1.872070 1.916482
										CHANNELS 6 Xposition Yposition Zposition Xrotation Yrotation Zrotation
										JOINT mixamorig:LeftHandThumb3
										{
											OFFSET 2.656029 -1.528778 1.514513
											CHANNELS 6 Xposition Yposition Zposition Xrotation Yrotation Zrotation
											JOINT mixamorig:LeftHandThumb4
											{
												OFFSET 2.020889 -1.154053 1.115139
												CHANNELS 6 Xposition Yposition Zposition Xrotation Yrotation Zrotation
												End Site
												{
													OFFSET 190.885437 -115.081749 130.048782
												}
											}
										}
									}
								}
								JOINT mixamorig:LeftHandIndex1
								{
									OFFSET 9.109314 -0.518021 2.259871
									CHANNELS 6 Xposition Yposition Zposition Xrotation Yrotation Zrotation
									JOINT mixamorig:LeftHandIndex2
									{
										OFFSET 3.699989 0.000000 -0.000322
										CHANNELS 6 Xposition Yposition Zposition Xrotation Yrotation Zrotation
										JOINT mixamorig:LeftHandIndex3
										{
											OFFSET 2.850006 0.000000 0.000352
											CHANNELS 6 Xposition Yposition Zposition Xrotation Yrotation Zrotation
											JOINT mixamorig:LeftHandIndex4
											{
												OFFSET 2.774864 -0.000031 -0.000027
												CHANNELS 6 Xposition Yposition Zposition Xrotation Yrotation Zrotation
												End Site
												{
													OFFSET 277.486267 0.000000 -0.009857
												}
											}
										}
									}
								}
								JOINT mixamorig:LeftHandMiddle1
								{
									OFFSET 9.533394 0.000061 0.000044
									CHANNELS 6 Xposition Yposition Zposition Xrotation Yrotation Zrotation
									JOINT mixamorig:LeftHandMiddle2
									{
										OFFSET 3.699989 -0.000015 -0.000231
										CHANNELS 6 Xposition Yposition Zposition Xrotation Yrotation Zrotation
										JOINT mixamorig:LeftHandMiddle3
										{
											OFFSET 2.949997 -0.000015 -0.000059
											CHANNELS 6 Xposition Yposition Zposition Xrotation Yrotation Zrotation
											JOINT mixamorig:LeftHandMiddle4
											{
												OFFSET 2.952896 0.000031 0.000063
												CHANNELS 6 Xposition Yposition Zposition Xrotation Yrotation Zrotation
												End Site
												{
													OFFSET 295.289337 0.000000 0.022810
												}
											}
										}
									}
								}
								JOINT mixamorig:LeftHandRing1
								{
									OFFSET 9.104523 -0.042999 -1.865074
									CHANNELS 6 Xposition Yposition Zposition Xrotation Yrotation Zrotation
									JOINT mixamorig:LeftHandRing2
									{
										OFFSET 3.150009 -0.000031 0.000043
										CHANNELS 6 Xposition Yposition Zposition Xrotation Yrotation Zrotation
										JOINT mixamorig:LeftHandRing3
										{
											OFFSET 2.949982 -0.000015 0.000040
											CHANNELS 6 Xposition Yposition Zposition Xrotation Yrotation Zrotation
											JOINT mixamorig:LeftHandRing4
											{
												OFFSET 2.644348 0.000000 0.000057
												CHANNELS 6 Xposition Yposition Zposition Xrotation Yrotation Zrotation
												End Site
												{
													OFFSET 264.434631 0.000000 0.012105
												}
											}
										}
									}
								}
								JOINT mixamorig:LeftHandPinky1
								{
									OFFSET 8.077789 -0.486847 -3.806259
									CHANNELS 6 Xposition Yposition Zposition Xrotation Yrotation Zrotation
									JOINT mixamorig:LeftHandPinky2
									{
										OFFSET 3.599953 0.000031 0.014727
										CHANNELS 6 Xposition Yposition Zposition Xrotation Yrotation Zrotation
										JOINT mixamorig:LeftHandPinky3
										{
											OFFSET 2.100021 0.000015 0.007705
											CHANNELS 6 Xposition Yposition Zposition Xrotation Yrotation Zrotation
											JOINT mixamorig:LeftHandPinky4
											{
												OFFSET 2.125504 0.000031 0.007517
												CHANNELS 6 Xposition Yposition Zposition Xrotation Yrotation Zrotation
												End Site
												{
													OFFSET 212.550781 0.000000 0.625752
												}
											}
										}
									}
								}
							}
						}
					}
				}
			}
		}
	}
	JOINT mixamorig:RightUpLeg
	{
		OFFSET -8.207787 -6.751648 -1.599560
		CHANNELS 6 Xposition Yposition Zposition Xrotation Yrotation Zrotation
		JOINT mixamorig:RightLeg
		{
			OFFSET -0.000002 -44.370117 0.345942
			CHANNELS 6 Xposition Yposition Zposition Xrotation Yrotation Zrotation
			JOINT mixamorig:RightFoot
			{
				OFFSET 0.000003 -44.423679 -3.043532
				CHANNELS 6 Xposition Yposition Zposition Xrotation Yrotation Zrotation
				JOINT mixamorig:RightToeBase
				{
					OFFSET -0.000002 -8.728671 10.710558
					CHANNELS 6 Xposition Yposition Zposition Xrotation Yrotation Zrotation
					JOINT mixamorig:RightToe_End
					{
						OFFSET -0.000001 -0.000679 9.278119
						CHANNELS 6 Xposition Yposition Zposition Xrotation Yrotation Zrotation
						End Site
						{
							OFFSET 0.000000 -0.067690 927.812134
						}
					}
				}
			}
		}
	}
	JOINT mixamorig:LeftUpLeg
	{
		OFFSET 8.207793 -6.751686 -1.599556
		CHANNELS 6 Xposition Yposition Zposition Xrotation Yrotation Zrotation
		JOINT mixamorig:LeftLeg
		{
			OFFSET -0.000004 -44.370014 0.346954
			CHANNELS 6 Xposition Yposition Zposition Xrotation Yrotation Zrotation
			JOINT mixamorig:LeftFoot
			{
				OFFSET -0.000001 -44.423672 -3.044401
				CHANNELS 6 Xposition Yposition Zposition Xrotation Yrotation Zrotation
				JOINT mixamorig:LeftToeBase
				{
					OFFSET -0.000002 -8.728669 10.710558
					CHANNELS 6 Xposition Yposition Zposition Xrotation Yrotation Zrotation
					JOINT mixamorig:LeftToe_End
					{
						OFFSET -0.000003 -0.000679 9.278133
						CHANNELS 6 Xposition Yposition Zposition Xrotation Yrotation Zrotation
						End Site
						{
							OFFSET 0.000000 -0.068021 927.813477
						}
					}
				}
			}
		}
	}
}
MOTION
Frames: 3
Frame Time: 0.033333
0.000006 104.270477 1.554256 0.000010 0.000003 -0.000113 -0.000005 10.181587 0.131522 0.000001 -0.000003 0.000084 -0.000000 9.893967 -1.470711 0.000001 0.000000 -0.000000 -0.000000 9.220802 -1.370642 0.000000 -0.000000 -0.000000 0.000001 16.740433 -2.049030 0.000000 -0.000000 -0.000000 0.000000 9.617859 1.685014 0.000000 0.000000 0.000000 0.000002 22.037384 7.501101 0.000000 -0.000000 0.000000 -4.569968 11.014880 -2.160881 0.000008 0.000001 -0.000038 -10.592776 -0.524851 -2.231746 79.482502 64.426162 -55.295299 -27.841373 0.000008 0.000633 -8.283914 124.119359 15.550056 -28.328829 0.000022 0.000027 -0.000323 -0.000040 0.000010 -2.464909 -1.573733 2.682213 -34.564596 -211.233436 -169.825687 -3.214703 -1.872574 1.924671 127.593603 -24.251003 154.400497 -2.654402 -1.527878 1.513054 137.682434 -29.895533 172.538857 -2.018823 -1.152012 1.108058 -0.000001 0.000000 0.000004 -9.108324 -0.517858 2.260388 164.493263 14.511604 -86.444322 -3.699968 -0.000010 0.001779 161.471887 18.255335 -89.011244 -2.850008 0.000035 0.000028 164.118203 16.367647 -91.743593 -2.772147 -0.000015 -0.000024 -0.000000 -0.000001 -0.000004 -9.532526 -0.000018 0.000525 163.905538 13.626183 -81.276020 -3.699984 -0.000004 0.004272 161.897340 18.406723 -90.474257 -2.950011 0.000032 -0.001499 164.137041 14.363574 -84.208733 -2.946620 0.000003 -0.000157 -0.000003 0.000000 -0.000002 -9.103622 -0.043039 -1.864586 162.643361 15.421578 -82.902972 -3.379293 0.000026 -0.000488 159.698019 15.949468 -76.174798 -2.889703 0.000031 0.000944 162.550456 11.527585 -66.977648 -2.638813 -0.000015 0.000953 -0.000002 0.000003 0.000001 -8.076663 -0.486676 -3.805721 161.985299 17.771835 -88.446585 -3.600037 -0.000001 -0.003198 160.401638 13.393012 -66.330720 -2.099990 -0.000004 -0.005199 161.042760 10.467031 -56.069559 -2.115778 -0.000026 -0.003675 0.000004 0.000001 -0.000005 4.570446 11.014691 -2.160851 -0.000018 0.000010 -0.000021 10.592487 -0.524561 -2.232363 40.648450 -63.851060 25.990256 27.841858 -0.000069 -0.000108 183.952062 -63.450613 186.388677 28.328838 -0.000043 0.000018 0.000021 -0.000089 0.000000 2.465930 -1.576147 2.681884 134.620078 33.399519 -173.625909 3.217450 -1.871802 1.916485 -56.637677 184.817214 56.383543 2.655746 -1.528764 1.514630 -42.388045 157.749161 6.369823 2.020864 -1.154068 1.115158 0.000002 0.000003 0.000004 9.109383 -0.517798 2.259750 103.975136 -12.245056 15.613049 3.700064 0.000189 -0.000450 99.043371 -16.594020 19.414189 2.850080 0.000237 0.000217 94.477663 -15.401952 16.636881 2.774882 -0.000047 -0.000024 0.000000 0.000003 -0.000001 9.533462 0.000311 -0.000087 106.452514 -8.199365 10.945192 3.700066 0.000220 -0.000364 99.634080 -10.904330 12.892599 2.950059 0.000212 -0.000203 98.014724 -12.499401 14.367615 2.952881 -0.000016 0.000035 -0.000000 0.000003 -0.000000 9.104577 -0.042748 -1.865233 109.871987 -6.341605 9.028267 3.150007 0.000294 -0.000123 104.283943 -0.436532 0.563583 2.950002 0.000263 -0.000094 106.311239 -1.780020 2.377446 2.644331 0.000017 0.000057 0.000000 -0.000001 -0.000002 8.077820 -0.486572 -3.806395 115.231917 -4.279918 7.547339 3.599911 0.000358 0.014546 112.020109 6.975133 -9.788975 2.099940 0.000356 0.007552 115.115926 8.486753 -12.789907 2.125509 -0.000015 0.007514 -0.000001 -0.000001 0.000004 -8.207786 -6.751667 -1.599560 -0.077001 -0.000003 0.000080 -0.000002 -44.370110 0.345938 0.153719 -0.000000 -0.000000 0.000000 -44.423679 -3.043532 -0.076700 0.000000 -0.000002 -0.000006 -8.728667 10.710559 -0.000009 -0.000000 -0.000000 -0.000001 -0.000679 9.278123 0.000000 -0.000000 -0.000000 8.207792 -6.751710 -1.599556 -0.074518 -0.000003 0.000081 -0.000002 -44.370014 0.346960 0.148822 0.000002 0.000000 -0.000001 -44.423664 -3.044403 -0.074314 0.000000 -0.000002 -0.000004 -8.728671 10.710558 0.000007 -0.000000 -0.000000 0.000000 -0.000680 9.278137 -0.000000 0.000000 -0.000001 
0.000006 104.270477 1.554256 0.000010 0.000003 -0.000113 -0.000005 10.181587 0.131522 0.000001 -0.000003 0.000084 -0.000000 9.893967 -1.470711 0.000001 0.000000 -0.000000 -0.000000 9.220802 -1.370642 0.000000 -0.000000 -0.000000 0.000001 16.740433 -2.049030 0.000000 -0.000000 -0.000000 0.000000 9.617859 1.685014 0.000000 0.000000 0.000000 0.000002 22.037384 7.501101 0.000000 -0.000000 0.000000 -4.569968 11.014880 -2.160881 0.000008 0.000001 -0.000038 -10.592779 -0.524843 -2.231742 73.108152 67.390417 -52.613562 -27.841391 -0.000040 0.000623 -6.160791 118.685670 10.375197 -28.328838 0.000018 0.000029 -0.000324 -0.000045 0.000008 -2.464895 -1.573671 2.682201 -39.187087 -211.582731 -155.171940 -3.214696 -1.872579 1.924647 126.562203 -25.422309 152.420152 -2.654409 -1.527885 1.513051 136.887892 -31.870079 170.836241 -2.018846 -1.151991 1.108062 -0.000004 -0.000001 0.000004 -9.108251 -0.517905 2.260410 169.838200 12.977167 -104.332014 -3.699924 -0.000025 0.001786 166.452694 17.839578 -105.620946 -2.849980 0.000015 0.000041 168.080095 16.290319 -107.778643 -2.772172 -0.000002 -0.000017 0.000002 0.000001 0.000000 -9.532460 -0.000063 0.000555 169.952483 12.203243 -102.303086 -3.699962 -0.000019 0.004287 165.036700 18.101794 -100.450916 -2.950008 0.000006 -0.001495 166.173216 14.089612 -91.040227 -2.946625 -0.000011 -0.000165 -0.000000 -0.000005 0.000001 -9.103539 -0.043097 -1.864552 169.276608 14.773621 -107.884539 -3.379282 0.000005 -0.000482 162.082151 15.010720 -79.874254 -2.889719 0.000033 0.000939 164.143407 10.443942 -66.891383 -2.638822 -0.000008 0.000944 0.000002 0.000003 0.000002 -8.076592 -0.486710 -3.805706 167.693848 17.514984 -109.142803 -3.600010 -0.000016 -0.003203 163.306326 12.174492 -69.613288 -2.099976 0.000006 -0.005177 163.606772 8.714042 -54.092294 -2.115774 -0.000067 -0.003681 -0.000002 0.000000 -0.000004 4.570446 11.014691 -2.160851 -0.000018 0.000010 -0.000021 10.592468 -0.524584 -2.232346 29.136965 -63.104698 18.134779 27.841845 -0.000018 -0.000135 180.748047 -70.089762 181.066662 28.328838 -0.000027 0.000021 0.000021 -0.000089 0.000000 2.465866 -1.576073 2.681867 124.774797 9.290210 -147.788382 3.217599 -1.871701 1.916396 -43.752966 210.752235 120.070668 2.655647 -1.528557 1.514563 -54.002915 188.178009 57.074225 2.020898 -1.154095 1.115147 -0.000001 0.000000 0.000003 9.109365 -0.517819 2.259726 92.462996 -13.343415 13.911519 3.700045 0.000153 -0.000456 87.148658 -15.908228 15.161410 2.850070 0.000158 0.000202 84.834870 -16.085331 14.711579 2.774878 -0.000027 -0.000037 -0.000000 0.000001 -0.000002 9.533457 0.000241 -0.000102 92.901685 -10.899402 11.453372 3.700050 0.000182 -0.000390 85.525559 -13.918374 12.878385 2.950066 0.000168 -0.000205 82.414306 -16.342684 14.335835 2.952870 -0.000015 0.000045 -0.000001 -0.000002 0.000001 9.104573 -0.042789 -1.865223 94.842299 -9.369391 10.194472 3.150038 0.000198 -0.000115 86.167208 -8.870422 8.299747 2.950025 0.000173 -0.000079 84.491680 -11.610581 10.552684 2.644327 0.000045 0.000066 0.000001 0.000001 -0.000001 8.077821 -0.486648 -3.806406 95.985181 -8.301045 9.807101 3.599976 0.000226 0.014566 88.596494 -4.024002 4.367916 2.100025 0.000249 0.007532 92.646414 -4.603048 5.278938 2.125490 -0.000016 0.007513 -0.000000 -0.000002 -0.000001 -8.207786 -6.751667 -1.599560 -0.077001 -0.000003 0.000080 -0.000002 -44.370110 0.345938 0.153719 -0.000000 -0.000000 0.000000 -44.423679 -3.043532 -0.076700 0.000000 -0.000002 -0.000006 -8.728667 10.710559 -0.000009 -0.000000 -0.000000 -0.000001 -0.000679 9.278123 0.000000 -0.000000 -0.000000 8.207792 -6.751710 -1.599556 -0.074518 -0.000003 0.000081 -0.000002 -44.370014 0.346960 0.148822 0.000002 0.000000 -0.000001 -44.423664 -3.044403 -0.074314 0.000000 -0.000002 -0.000004 -8.728671 10.710558 0.000007 -0.000000 -0.000000 0.000000 -0.000680 9.278137 -0.000000 0.000000 -0.000001 
0.000006 104.270477 1.554256 0.000010 0.000003 -0.000113 -0.000005 10.181587 0.131522 0.000001 -0.000003 0.000084 -0.000000 9.893967 -1.470711 0.000001 0.000000 -0.000000 -0.000000 9.220802 -1.370642 0.000000 -0.000000 -0.000000 0.000001 16.740433 -2.049030 0.000000 -0.000000 -0.000000 0.000000 9.617859 1.685014 0.000000 0.000000 0.000000 0.000002 22.037384 7.501101 0.000000 -0.000000 0.000000 -4.569968 11.014880 -2.160881 0.000008 0.000001 -0.000038 -10.592772 -0.524838 -2.231734 67.371866 71.263899 -51.074563 -27.841427 -0.000004 0.000619 -5.773309 113.413925 8.781518 -28.328838 0.000020 0.000027 -0.000321 -0.000044 0.000008 -2.464850 -1.573675 2.682203 -36.318510 -215.002553 -132.718540 -3.214727 -1.872542 1.924700 130.285749 -19.269509 159.727252 -2.654451 -1.527803 1.513066 133.804567 -18.380743 164.005560 -2.018822 -1.151998 1.108068 -0.000006 -0.000003 0.000000 -9.108110 -0.517924 2.260412 175.856198 11.802800 -141.856308 -3.699869 -0.000040 0.001801 170.831774 16.516087 -121.997765 -2.849992 0.000012 0.000042 168.080123 13.992729 -99.217759 -2.772155 -0.000001 -0.000018 0.000001 0.000002 -0.000001 -9.532300 -0.000103 0.000547 177.092448 9.540745 -147.799693 -3.699921 -0.000040 0.004287 171.217010 12.808106 -110.423470 -2.950013 0.000003 -0.001495 168.164257 10.726087 -84.271154 -2.946630 0.000003 -0.000158 0.000000 0.000000 -0.000001 -9.103482 -0.043158 -1.864569 174.078709 8.986085 -112.770091 -3.379278 0.000175 -0.000511 169.578789 0.691658 -7.748839 -2.889696 0.000225 0.000911 167.467182 0.072802 -1.038642 -2.638807 -0.000017 0.000939 -0.000001 -0.000001 -0.000004 -8.076613 -0.486705 -3.805718 171.906135 7.854257 -86.550197 -3.599864 0.000253 -0.003228 166.743960 -5.836057 48.586230 -2.099813 0.000348 -0.005233 164.984039 -7.578734 53.949864 -2.115781 -0.000041 -0.003681 0.000001 -0.000001 -0.000004 4.570446 11.014691 -2.160851 -0.000018 0.000010 -0.000021 10.592470 -0.524579 -2.232340 22.415098 -66.667147 14.850126 27.841831 -0.000005 -0.000152 173.297267 -76.229890 171.462473 28.328838 -0.000015 0.000022 0.000020 -0.000089 0.000000 2.465930 -1.576143 2.681906 132.925207 11.310117 -172.107353 3.217773 -1.871719 1.916381 -23.312069 212.905384 170.418138 2.655885 -1.528381 1.514439 -31.564743 214.860471 139.006685 2.020887 -1.154053 1.115147 0.000001 0.000002 0.000004 9.109375 -0.517853 2.259738 82.814527 -15.916221 14.044702 3.700047 0.000131 -0.000460 79.338917 -16.925516 14.083211 2.850045 0.000163 0.000214 74.117245 -15.227900 11.527576 2.774874 -0.000033 -0.000021 -0.000000 -0.000002 -0.000001 9.533454 0.000219 -0.000091 89.102065 -13.750469 13.530120 3.700058 0.000159 -0.000379 85.511851 -15.334967 14.188129 2.950065 0.000145 -0.000189 80.851538 -15.951659 13.614977 2.952869 -0.000043 0.000081 0.000001 0.000000 0.000002 9.104577 -0.042816 -1.865220 93.081750 -10.580507 11.163815 3.150054 0.000216 -0.000103 85.830930 -7.834323 7.287185 2.950010 0.000170 -0.000109 81.726164 -8.972604 7.767669 2.644329 0.000030 0.000056 0.000002 0.000000 -0.000001 8.077824 -0.486666 -3.806404 94.052026 -8.568781 9.770775 3.599973 0.000240 0.014537 89.580076 -0.748333 1.168905 2.100004 0.000221 0.007516 89.891894 -0.625353 1.034346 2.125503 -0.000000 0.007522 -0.000001 0.000003 0.000000 -8.207786 -6.751667 -1.599560 -0.077001 -0.000003 0.000080 -0.000002 -44.370110 0.345938 0.153719 -0.000000 -0.000000 0.000000 -44.423679 -3.043532 -0.076700 0.000000 -0.000002 -0.000006 -8.728667 10.710559 -0.000009 -0.000000 -0.000000 -0.000001 -0.000679 9.278123 0.000000 -0.000000 -0.000000 8.207792 -6.751710 -1.599556 -0.074518 -0.000003 0.000081 -0.000002 -44.370014 0.346960 0.148822 0.000002 0.000000 -0.000001 -44.423664 -3.044403 -0.074314 0.000000 -0.000002 -0.000004 -8.728671 10.710558 0.000007 -0.000000 -0.000000 0.000000 -0.000680 9.278137 -0.000000 0.000000 -0.000001 
